<svg width="24" height="24" viewBox="0 0 24 24" fill="none" xmlns="http://www.w3.org/2000/svg">
  <path fill-rule="evenodd" clip-rule="evenodd" d="M9.85625 4.4687C10.825 2.84995 13.1738 2.84995 14.1438 4.4687L21.635 16.965C22.6338 18.6312 21.4338 20.75 19.49 20.75H4.51C2.56625 20.75 1.36625 18.6312 2.365 16.965L9.85625 4.4687ZM12 8.24995C12.2486 8.24995 12.4871 8.34872 12.6629 8.52454C12.8387 8.70035 12.9375 8.93881 12.9375 9.18745V12.9375C12.9375 13.1861 12.8387 13.4245 12.6629 13.6004C12.4871 13.7762 12.2486 13.875 12 13.875C11.7514 13.875 11.5129 13.7762 11.3371 13.6004C11.1613 13.4245 11.0625 13.1861 11.0625 12.9375V9.18745C11.0625 8.93881 11.1613 8.70035 11.3371 8.52454C11.5129 8.34872 11.7514 8.24995 12 8.24995ZM13.25 16.375C13.25 16.7065 13.1183 17.0244 12.8839 17.2588C12.6495 17.4933 12.3315 17.625 12 17.625C11.6685 17.625 11.3505 17.4933 11.1161 17.2588C10.8817 17.0244 10.75 16.7065 10.75 16.375C10.75 16.0434 10.8817 15.7255 11.1161 15.4911C11.3505 15.2566 11.6685 15.125 12 15.125C12.3315 15.125 12.6495 15.2566 12.8839 15.4911C13.1183 15.7255 13.25 16.0434 13.25 16.375Z" fill="#FFC400"/>
</svg>
