<svg width="24" height="24" viewBox="0 0 24 24" fill="none" xmlns="http://www.w3.org/2000/svg">
  <path opacity="0.3" fill-rule="evenodd" clip-rule="evenodd" d="M4.95964 4.26932C5.15224 4.44397 5.26417 4.68466 5.26391 4.93979C5.26364 5.19491 5.15121 5.43539 4.95827 5.60969C4.03051 6.44431 3.29547 7.43597 2.79513 8.52641C2.29482 9.61679 2.03852 10.7852 2.04042 11.9644C2.03859 13.1571 2.30086 14.3391 2.81239 15.4399C3.32379 16.5404 4.07425 17.5386 5.02056 18.375C5.11862 18.4597 5.19828 18.5621 5.25395 18.6769C5.30985 18.7921 5.3402 18.917 5.3426 19.0441C5.345 19.1713 5.31937 19.2972 5.26777 19.4142C5.21619 19.5312 5.13996 19.6365 5.04452 19.7245C4.94911 19.8125 4.83629 19.8816 4.71306 19.9285C4.58984 19.9755 4.45809 19.9997 4.32531 20C4.19254 20.0003 4.06066 19.9768 3.93718 19.9305C3.81417 19.8843 3.70136 19.8162 3.60569 19.7292C2.46414 18.7198 1.55633 17.5132 0.936694 16.1798C0.316837 14.8459 -0.00185173 13.4126 8.09353e-06 11.9646C4.57177e-05 8.95458 1.35271 6.23181 3.52959 4.26799C3.72214 4.09446 3.9795 3.99977 4.24427 4C4.50879 4.00023 4.76724 4.09528 4.95964 4.26932ZM19.1333 4.33915C19.3276 4.16736 19.5857 4.07493 19.8505 4.07741C20.1152 4.0799 20.3714 4.17711 20.5618 4.35263C22.7661 6.38003 24.0035 9.1139 24 11.9649C23.9999 14.9667 22.6551 17.6834 20.4871 19.6463C20.2948 19.8204 20.0375 19.9156 19.7724 19.9159C19.5074 19.9161 19.2498 19.8213 19.0572 19.6475C18.8639 19.4731 18.7513 19.2324 18.751 18.977C18.7508 18.7216 18.8629 18.4807 19.0558 18.306C19.9792 17.4719 20.7106 16.4821 21.2084 15.3942C21.7063 14.3063 21.9613 13.141 21.9596 11.965C21.9633 9.61849 20.9455 7.36035 19.1195 5.68097C18.9284 5.50475 18.8185 5.2629 18.8212 5.00776C18.8238 4.75295 18.9386 4.51208 19.1333 4.33915Z" fill="white"/>
  <path opacity="0.5" fill-rule="evenodd" clip-rule="evenodd" d="M7.71157 8.52006C6.62522 9.42295 5.97765 10.6473 5.97765 11.9809C5.97765 13.3305 6.64097 14.5682 7.75054 15.4744C7.96453 15.6493 8.09742 15.898 8.11005 16.1683C8.12269 16.4387 8.01334 16.6976 7.81507 16.889C7.61761 17.0796 7.34771 17.1888 7.06624 17.1992C6.78482 17.2096 6.50673 17.1206 6.29347 16.9463C4.77095 15.7031 3.8 13.945 3.8 11.9809C3.8 10.0398 4.74766 8.30104 6.24236 7.05877C6.45421 6.88298 6.73171 6.79206 7.01316 6.80055C7.29463 6.80904 7.56528 6.91643 7.76419 7.10552C7.96361 7.29514 8.07452 7.55329 8.06448 7.82342C8.05443 8.09372 7.92395 8.34345 7.71157 8.52006ZM17.8221 7.11279C19.2782 8.34993 20.2 10.0682 20.2 11.9809C20.2 13.9171 19.2578 15.6522 17.771 16.8924C17.6668 16.9819 17.545 17.0512 17.4129 17.0973C17.2804 17.1435 17.1394 17.1656 16.998 17.1628C16.8567 17.1599 16.7168 17.1321 16.5865 17.0804C16.4562 17.0288 16.3372 16.954 16.2372 16.8595C16.1371 16.7649 16.0578 16.6522 16.0053 16.5273C15.9528 16.4023 15.9284 16.2683 15.9344 16.1335C15.9404 15.9988 15.9765 15.8673 16.0397 15.747C16.1026 15.6272 16.1907 15.5214 16.2976 15.4347C17.3786 14.5331 18.0224 13.3101 18.0224 11.9809C18.0224 10.6663 17.3928 9.45725 16.3342 8.55872C16.1241 8.37984 15.9967 8.12857 15.9901 7.85826C15.9835 7.58783 16.0984 7.33137 16.3003 7.1439C16.5015 6.95713 16.7732 6.85258 17.0546 6.84692C17.336 6.84126 17.6124 6.93488 17.8221 7.11279Z" fill="white"/>
  <path opacity="0.7" d="M13.656 10.451C14.552 11.11 15 11.438 15 12C15 12.562 14.552 12.891 13.656 13.549C13.4222 13.7219 13.1828 13.887 12.938 14.044C12.7243 14.1774 12.5065 14.3041 12.285 14.424C11.391 14.914 10.945 15.159 10.544 14.888C10.143 14.617 10.107 14.05 10.034 12.917C10.014 12.596 10 12.282 10 12C10 11.718 10.013 11.404 10.034 11.083C10.106 9.95001 10.143 9.38301 10.544 9.11301C10.944 8.84101 11.391 9.08601 12.284 9.57501C12.517 9.70201 12.741 9.83101 12.938 9.95601C13.164 10.099 13.409 10.27 13.656 10.451Z" fill="white"/>
</svg>
