<svg width="30" height="30" viewBox="0 0 30 30" fill="none" xmlns="http://www.w3.org/2000/svg">
  <path d="M7.5 6.875H10.625L11.875 4.375H18.125L19.375 6.875H22.5V16.875H7.5V6.875Z" stroke="white" stroke-width="2" stroke-linecap="round" stroke-linejoin="round"/>
  <path d="M15 13.75C16.3807 13.75 17.5 12.6307 17.5 11.25C17.5 9.86929 16.3807 8.75 15 8.75C13.6193 8.75 12.5 9.86929 12.5 11.25C12.5 12.6307 13.6193 13.75 15 13.75Z" stroke="white" stroke-width="2" stroke-linecap="round" stroke-linejoin="round"/>
  <path d="M15 23.75C8.09625 23.75 2.5 20.9519 2.5 17.5C2.5 16.6112 2.87125 15.7656 3.54 15M15 23.75L12.5 21.25M15 23.75L12.5 26.25M20 23.23C24.415 22.2656 27.5 20.0625 27.5 17.5C27.5 16.6112 27.1287 15.7656 26.46 15" stroke="white" stroke-width="2" stroke-linecap="round" stroke-linejoin="round"/>
</svg>
