<svg viewBox="0 0 30 30" fill="none" xmlns="http://www.w3.org/2000/svg">
  <path d="M5.32698 7.88803L6.21799 8.34202H6.21799L5.32698 7.88803ZM5.7682 25.4818L5.06109 24.7747L5.06109 24.7747L5.7682 25.4818ZM23.362 20.923L22.908 20.032L23.362 20.923ZM24.673 19.612L23.782 19.158L23.782 19.158L24.673 19.612ZM24.673 7.88803L23.782 8.34202L23.782 8.34202L24.673 7.88803ZM23.362 6.57698L23.816 5.68597V5.68597L23.362 6.57698ZM6.63803 6.57698L7.09202 7.46799V7.46799L6.63803 6.57698ZM6 11.05C6 10.1934 6.00078 9.61113 6.03755 9.16104C6.07337 8.72262 6.1383 8.49842 6.21799 8.34202L4.43597 7.43404C4.18868 7.91937 4.09012 8.43608 4.04419 8.99817C3.99922 9.5486 4 10.2264 4 11.05H6ZM6 15V11.05H4V15H6ZM4 15V21.25H6V15H4ZM4 21.25V25.1636H6V21.25H4ZM4 25.1636C4 26.4554 5.56186 27.1024 6.47531 26.1889L5.06109 24.7747C5.40757 24.4282 6 24.6736 6 25.1636H4ZM6.47531 26.1889L10.4142 22.25L9 20.8358L5.06109 24.7747L6.47531 26.1889ZM20.2 20.25H10.4142V22.25H20.2V20.25ZM22.908 20.032C22.7516 20.1117 22.5274 20.1766 22.089 20.2124C21.6389 20.2492 21.0566 20.25 20.2 20.25V22.25C21.0236 22.25 21.7014 22.2508 22.2518 22.2058C22.8139 22.1599 23.3306 22.0613 23.816 21.814L22.908 20.032ZM23.782 19.158C23.5903 19.5343 23.2843 19.8403 22.908 20.032L23.816 21.814C24.5686 21.4305 25.1805 20.8186 25.564 20.066L23.782 19.158ZM24 16.45C24 17.3066 23.9992 17.8889 23.9624 18.339C23.9266 18.7774 23.8617 19.0016 23.782 19.158L25.564 20.066C25.8113 19.5806 25.9099 19.0639 25.9558 18.5018C26.0008 17.9514 26 17.2736 26 16.45H24ZM24 11.05V16.45H26V11.05H24ZM23.782 8.34202C23.8617 8.49842 23.9266 8.72262 23.9624 9.16104C23.9992 9.61113 24 10.1934 24 11.05H26C26 10.2264 26.0008 9.5486 25.9558 8.99817C25.9099 8.43608 25.8113 7.91937 25.564 7.43404L23.782 8.34202ZM22.908 7.46799C23.2843 7.65973 23.5903 7.96569 23.782 8.34202L25.564 7.43404C25.1805 6.68139 24.5686 6.06947 23.816 5.68597L22.908 7.46799ZM20.2 7.25C21.0566 7.25 21.6389 7.25078 22.089 7.28755C22.5274 7.32337 22.7516 7.3883 22.908 7.46799L23.816 5.68597C23.3306 5.43868 22.8139 5.34012 22.2518 5.29419C21.7014 5.24922 21.0236 5.25 20.2 5.25V7.25ZM9.8 7.25H20.2V5.25H9.8V7.25ZM7.09202 7.46799C7.24842 7.3883 7.47262 7.32337 7.91104 7.28755C8.36113 7.25078 8.94342 7.25 9.8 7.25V5.25C8.97642 5.25 8.2986 5.24922 7.74817 5.29419C7.18608 5.34012 6.66937 5.43868 6.18404 5.68597L7.09202 7.46799ZM6.21799 8.34202C6.40973 7.96569 6.71569 7.65973 7.09202 7.46799L6.18404 5.68597C5.43139 6.06947 4.81947 6.68139 4.43597 7.43404L6.21799 8.34202ZM10.4142 22.25H10.4142V20.25C9.88378 20.25 9.37507 20.4607 9 20.8358L10.4142 22.25Z" fill="white"/>
  <path d="M10 11.25L20 11.25" stroke="white" stroke-width="2" stroke-linecap="round" stroke-linejoin="round"/>
  <path d="M10 16.25H16.25" stroke="white" stroke-width="2" stroke-linecap="round" stroke-linejoin="round"/>
</svg>
