<svg viewBox="0 0 24 24" fill="none" xmlns="http://www.w3.org/2000/svg">
  <path fill-rule="evenodd" clip-rule="evenodd" d="M19.0607 4.93934C19.6464 5.52513 19.6464 6.47487 19.0607 7.06066L7.06066 19.0607C6.47487 19.6464 5.52513 19.6464 4.93934 19.0607C4.35355 18.4749 4.35355 17.5251 4.93934 16.9393L16.9393 4.93934C17.5251 4.35355 18.4749 4.35355 19.0607 4.93934Z" fill="white"/>
  <path fill-rule="evenodd" clip-rule="evenodd" d="M4.93934 4.93934C4.35355 5.52513 4.35355 6.47487 4.93934 7.06066L16.9393 19.0607C17.5251 19.6464 18.4749 19.6464 19.0607 19.0607C19.6464 18.4749 19.6464 17.5251 19.0607 16.9393L7.06066 4.93934C6.47487 4.35355 5.52513 4.35355 4.93934 4.93934Z" fill="white"/>
</svg>
