<svg width="12" height="13" viewBox="0 0 12 13" fill="none" xmlns="http://www.w3.org/2000/svg">
  <path d="M4.5 1.5C3.19 1.5 2.125 2.565 2.125 3.875C2.125 5.16 3.13 6.2 4.44 6.245C4.48 6.24 4.52 6.24 4.55 6.245C4.56 6.245 4.565 6.245 4.575 6.245C4.58 6.245 4.58 6.245 4.585 6.245C5.865 6.2 6.87 5.16 6.875 3.875C6.875 2.565 5.81 1.5 4.5 1.5Z" fill="currentColor"/>
  <path d="M7.03998 7.57494C5.64498 6.64494 3.36998 6.64494 1.96498 7.57494C1.32998 7.99994 0.97998 8.57494 0.97998 9.18994C0.97998 9.80494 1.32998 10.3749 1.95998 10.7949C2.65998 11.2649 3.57998 11.4999 4.49998 11.4999C5.41998 11.4999 6.33998 11.2649 7.03998 10.7949C7.66998 10.3699 8.01998 9.79994 8.01998 9.17994C8.01498 8.56494 7.66998 7.99494 7.03998 7.57494Z" fill="currentColor"/>
  <path d="M9.99518 4.17005C10.0752 5.14005 9.38518 5.99005 8.43018 6.10505C8.42518 6.10505 8.42518 6.10505 8.42018 6.10505H8.40518C8.37518 6.10505 8.34518 6.10505 8.32018 6.11505C7.83518 6.14005 7.39018 5.98505 7.05518 5.70005C7.57018 5.24005 7.86518 4.55005 7.80518 3.80005C7.77018 3.39505 7.63018 3.02505 7.42018 2.71005C7.61018 2.61505 7.83018 2.55505 8.05518 2.53505C9.03518 2.45005 9.91018 3.18005 9.99518 4.17005Z" fill="currentColor"/>
  <path d="M10.9951 8.79495C10.9551 9.27995 10.6451 9.69995 10.1251 9.98495C9.62512 10.26 8.99512 10.39 8.37012 10.375C8.73012 10.05 8.94012 9.64495 8.98012 9.21495C9.03012 8.59495 8.73512 7.99995 8.14512 7.52495C7.81012 7.25995 7.42012 7.04995 6.99512 6.89495C8.10012 6.57495 9.49012 6.78995 10.3451 7.47995C10.8051 7.84995 11.0401 8.31495 10.9951 8.79495Z" fill="currentColor"/>
</svg>
