<svg viewBox="0 0 32 32" fill="none" xmlns="http://www.w3.org/2000/svg">
  <path opacity="0.4" d="M26.4801 10.7867C26.4801 10.9867 26.4801 11.1867 26.4668 11.3733C24.4268 10.6133 22.0268 11.08 20.4268 12.52C19.3468 11.5467 17.9467 11 16.4534 11C13.1734 11 10.5068 13.68 10.5068 16.9867C10.5068 20.76 12.4001 23.52 14.2134 25.3067C14.0668 25.2933 13.9468 25.2667 13.8401 25.2267C10.3868 24.04 2.66675 19.1333 2.66675 10.7867C2.66675 7.10665 5.62674 4.13333 9.28007 4.13333C11.4534 4.13333 13.3734 5.17332 14.5734 6.78665C15.7867 5.17332 17.7067 4.13333 19.8667 4.13333C23.5201 4.13333 26.4801 7.10665 26.4801 10.7867Z" fill="#72E655"/>
  <path d="M24 12.7867C22.5734 12.7867 21.28 13.48 20.48 14.5467C19.68 13.48 18.4 12.7867 16.96 12.7867C14.5334 12.7867 12.5601 14.76 12.5601 17.2133C12.5601 18.16 12.7067 19.0266 12.9734 19.8267C14.2267 23.7867 18.08 26.1467 19.9867 26.8C20.2534 26.8933 20.6934 26.8933 20.9734 26.8C22.8801 26.1467 26.7334 23.7867 27.9867 19.8267C28.2534 19.0133 28.4 18.1467 28.4 17.2133C28.4 14.76 26.4267 12.7867 24 12.7867Z" fill="#72E655"/>
</svg>
