<svg viewBox="0 0 32 32" fill="none" xmlns="http://www.w3.org/2000/svg">
  <path d="M11.1303 6.26068L10.9911 6.09372C10.3739 5.44 9.56661 4.997 8.68366 4.82741C7.80071 4.65782 6.88679 4.77025 6.07127 5.14878C5.25574 5.52731 4.57993 6.15275 4.13951 6.93658C3.69909 7.72041 3.51637 8.62291 3.61721 9.51633C3.67286 9.91981 3.69373 10.3094 3.7146 10.7198C3.73547 11.1302 3.26938 15.7494 1.59286 18.7824V18.7407L1.08503 19.6102L0.980686 19.7563V19.8189C0.471537 20.752 0.264987 21.8203 0.389616 22.8759C0.514246 23.9315 0.963894 24.9223 1.67634 25.7111C2.13083 26.2073 2.68167 26.6057 3.29523 26.882C3.9088 27.1583 4.57223 27.3067 5.24503 27.3181C6.10377 27.305 6.94377 27.065 7.67982 26.6224C9.43811 25.6495 10.9494 24.2858 12.0972 22.6363C13.7826 20.1889 14.6028 17.2488 14.4276 14.2823C14.2524 11.3159 13.092 8.49277 11.1303 6.26068ZM3.83286 19.7215C3.77469 19.8458 3.69164 19.9567 3.58885 20.0475C3.48606 20.1383 3.36572 20.207 3.23529 20.2494C3.10485 20.2918 2.9671 20.307 2.83057 20.2939C2.69403 20.2809 2.56163 20.24 2.44156 20.1737C2.3123 20.1049 2.19862 20.0102 2.10764 19.8955C3.99982 17.0781 4.58417 12.5215 4.7233 11.1302H4.7859C5.06148 11.1411 5.32154 11.2606 5.50925 11.4627C5.69696 11.6647 5.79705 11.9329 5.78764 12.2085C5.68751 14.8248 5.02056 17.3882 3.83286 19.7215Z" fill="#72E655"/>
  <path opacity="0.4" d="M31.6243 21.4469C31.509 20.3884 31.0674 19.3919 30.3607 18.5955C29.654 17.7991 28.7172 17.2421 27.68 17.0017H27.5408C24.4633 16.3262 21.5711 14.9846 19.0678 13.0712C18.7826 12.793 18.4974 12.5147 18.2261 12.2017C17.8127 11.7283 17.2958 11.3565 16.7155 11.1152C16.1352 10.874 15.5071 10.7696 14.88 10.8104C15.4628 12.7051 15.6493 14.6995 15.4279 16.6695C15.2065 18.6394 14.5819 20.5427 13.593 22.2608C14.6661 23.6346 16.0004 24.7826 17.5191 25.6387C19.0377 26.4947 20.7107 27.0418 22.4417 27.2486C22.9593 27.3036 23.4795 27.3315 24 27.3321C25.4806 27.3344 26.9508 27.0851 28.3478 26.5947C29.4114 26.2579 30.3226 25.5575 30.9217 24.6163C31.5207 23.6751 31.7695 22.5531 31.6243 21.4469ZM27.0052 18.3582C26.9736 18.4919 26.9155 18.6179 26.8341 18.7287C26.7528 18.8395 26.6499 18.9327 26.5318 19.0028C26.4136 19.0729 26.2825 19.1185 26.1463 19.1369C26.0101 19.1552 25.8716 19.1459 25.7391 19.1095C23.1922 18.4407 20.8194 17.2306 18.7826 15.5617C18.5697 15.3875 18.4341 15.1363 18.4055 14.8627C18.3768 14.5891 18.4573 14.3153 18.6295 14.1008L18.6782 14.0591C21.1499 15.901 23.979 17.2065 26.9843 17.8921C27.0261 18.0439 27.0333 18.2032 27.0052 18.3582Z" fill="#72E655"/>
</svg>
