<svg width="13" height="13" viewBox="0 0 13 13" fill="none" xmlns="http://www.w3.org/2000/svg">
  <path d="M6.5 1.5C5.19 1.5 4.125 2.565 4.125 3.875C4.125 5.16 5.13 6.2 6.44 6.245C6.48 6.24 6.52 6.24 6.55 6.245C6.56 6.245 6.565 6.245 6.575 6.245C6.58 6.245 6.58 6.245 6.585 6.245C7.865 6.2 8.87 5.16 8.875 3.875C8.875 2.565 7.81 1.5 6.5 1.5Z" fill="currentColor"/>
  <path d="M9.03998 7.57494C7.64498 6.64494 5.36998 6.64494 3.96498 7.57494C3.32998 7.99994 2.97998 8.57494 2.97998 9.18994C2.97998 9.80494 3.32998 10.3749 3.95998 10.7949C4.65998 11.2649 5.57998 11.4999 6.49998 11.4999C7.41998 11.4999 8.33998 11.2649 9.03998 10.7949C9.66998 10.3699 10.02 9.79994 10.02 9.17994C10.015 8.56494 9.66998 7.99494 9.03998 7.57494Z" fill="currentColor"/>
</svg>
