<svg viewBox="0 0 12 12" fill="none" xmlns="http://www.w3.org/2000/svg">
  <path d="M4.10685 6.97856L4.01408 6.97051C2.83079 6.8678 2.23915 6.81644 2.05122 6.42998C1.86329 6.04351 2.20397 5.5788 2.88534 4.64937L5.66015 0.864351C6.11027 0.25035 6.33534 -0.0566508 6.52944 0.00862991C6.72355 0.0739106 6.69745 0.447823 6.64523 1.19565L6.48783 3.45008C6.44032 4.13059 6.41656 4.47085 6.62135 4.69983C6.82614 4.92882 7.18181 4.95969 7.89315 5.02144L7.98592 5.02949C9.16921 5.1322 9.76085 5.18356 9.94878 5.57002C10.1367 5.95649 9.79603 6.4212 9.11466 7.35064L6.33985 11.1356C5.88973 11.7497 5.66466 12.0567 5.47055 11.9914C5.27645 11.9261 5.30255 11.5522 5.35477 10.8044L5.51217 8.54992C5.55968 7.86941 5.58344 7.52915 5.37865 7.30017C5.17386 7.07118 4.81819 7.04031 4.10685 6.97856Z" fill="#72E655"/>
</svg>
