<svg width="17" height="16" viewBox="0 0 17 16" fill="none" xmlns="http://www.w3.org/2000/svg">
  <path d="M5.97588 9.30475L5.85219 9.29401C4.27447 9.15706 3.48562 9.08859 3.23504 8.5733C2.98446 8.05802 3.43871 7.4384 4.3472 6.19915L8.04694 1.15247C8.64711 0.3338 8.9472 -0.0755344 9.20601 0.0115065C9.46482 0.0985475 9.43001 0.597097 9.36039 1.5942L9.15052 4.60011C9.08717 5.50746 9.0555 5.96113 9.32855 6.26644C9.6016 6.57175 10.0758 6.61292 11.0243 6.69525L11.148 6.70599C12.7257 6.84294 13.5145 6.91142 13.7651 7.4267C14.0157 7.94198 13.5615 8.5616 12.653 9.80085L8.95322 14.8475C8.35305 15.6662 8.05297 16.0755 7.79415 15.9885C7.53534 15.9015 7.57015 15.4029 7.63977 14.4058L7.84964 11.3999C7.91299 10.4925 7.94467 10.0389 7.67161 9.73356C7.39856 9.42825 6.92434 9.38708 5.97588 9.30475Z" fill="white"/>
</svg>
