<svg width="24" height="24" viewBox="0 0 24 24" fill="none" xmlns="http://www.w3.org/2000/svg">
<path d="M4 19.7H14.5C15.2956 19.7 16.0587 19.3839 16.6213 18.8213C17.1839 18.2587 17.5 17.4956 17.5 16.7V14.2L21.4856 16.5914C21.6373 16.6824 21.8105 16.7316 21.9875 16.7338C22.1644 16.736 22.3388 16.6913 22.4927 16.6041C22.6467 16.5169 22.7748 16.3904 22.8639 16.2375C22.9531 16.0846 23 15.9108 23 15.7339V8.26611C23 8.08916 22.953 7.91538 22.8639 7.76251C22.7748 7.60964 22.6467 7.48315 22.4927 7.39597C22.3387 7.30879 22.1644 7.26403 21.9874 7.26627C21.8105 7.2685 21.6373 7.31765 21.4856 7.40869L17.5 9.80005V7.30005C17.5 6.5044 17.1839 5.74134 16.6213 5.17873C16.0587 4.61612 15.2956 4.30005 14.5 4.30005H4C3.20435 4.30005 2.44129 4.61612 1.87868 5.17873C1.31607 5.74134 1 6.5044 1 7.30005V16.7C1 17.4956 1.31607 18.2587 1.87868 18.8213C2.44129 19.3839 3.20435 19.7 4 19.7ZM7 9.1355C6.99998 9.03968 7.02525 8.94555 7.07324 8.86261C7.12123 8.77968 7.19026 8.71087 7.27335 8.66315C7.35644 8.61542 7.45065 8.59046 7.54647 8.59078C7.64229 8.59111 7.73633 8.61671 7.81909 8.665L12.7297 11.5295C12.812 11.5775 12.8802 11.6461 12.9276 11.7287C12.975 11.8112 13 11.9048 13 12C13 12.0952 12.975 12.1887 12.9276 12.2712C12.8802 12.3538 12.812 12.4225 12.7297 12.4704L7.81909 15.335C7.73633 15.3833 7.64229 15.4089 7.54647 15.4092C7.45065 15.4095 7.35643 15.3846 7.27334 15.3369C7.19025 15.2891 7.12123 15.2203 7.07324 15.1374C7.02524 15.0545 6.99998 14.9603 7 14.8645V9.1355Z" fill="white"/>
</svg>
