<svg width="32" height="32" viewBox="0 0 32 32" fill="none" xmlns="http://www.w3.org/2000/svg">
<path fill-rule="evenodd" clip-rule="evenodd" d="M10.1111 8.66672C10.1111 5.41332 12.7466 2.77783 16 2.77783C19.2534 2.77783 21.8889 5.41332 21.8889 8.66672V15.3889C21.8889 18.6423 19.2534 21.2778 16 21.2778C12.7466 21.2778 10.1111 18.6423 10.1111 15.3889V8.66672ZM16 4.77783C13.8511 4.77783 12.1111 6.51789 12.1111 8.66672V15.3889C12.1111 17.5378 13.8511 19.2778 16 19.2778C18.1488 19.2778 19.8889 17.5378 19.8889 15.3889V8.66672C19.8889 6.51789 18.1488 4.77783 16 4.77783Z" fill="white"/>
<path fill-rule="evenodd" clip-rule="evenodd" d="M6.64996 12.1277C7.20225 12.1277 7.64996 12.5754 7.64996 13.1277V15.2055C7.64996 19.811 11.3945 23.5555 16 23.5555C20.6055 23.5555 24.35 19.811 24.35 15.2055V13.1277C24.35 12.5754 24.7977 12.1277 25.35 12.1277C25.9022 12.1277 26.35 12.5754 26.35 13.1277V15.2055C26.35 20.9155 21.71 25.5555 16 25.5555C10.2899 25.5555 5.64996 20.9155 5.64996 15.2055V13.1277C5.64996 12.5754 6.09768 12.1277 6.64996 12.1277Z" fill="white"/>
<path fill-rule="evenodd" clip-rule="evenodd" d="M17.3546 10.1313C16.4769 9.80943 15.5231 9.80943 14.6454 10.1313C14.1268 10.3214 13.5524 10.0552 13.3622 9.53665C13.1721 9.01812 13.4383 8.44364 13.9569 8.25352C15.2791 7.76868 16.7209 7.76868 18.0431 8.25352C18.5617 8.44364 18.8279 9.01812 18.6378 9.53665C18.4476 10.0552 17.8732 10.3214 17.3546 10.1313Z" fill="white"/>
<path fill-rule="evenodd" clip-rule="evenodd" d="M16.7346 12.7502C16.2542 12.6233 15.758 12.6233 15.2776 12.7502C14.7436 12.8912 14.1964 12.5727 14.0554 12.0388C13.9143 11.5048 14.2329 10.9576 14.7668 10.8165C15.582 10.6012 16.4302 10.6012 17.2454 10.8165C17.7794 10.9576 18.0979 11.5048 17.9568 12.0388C17.8158 12.5727 17.2686 12.8912 16.7346 12.7502Z" fill="white"/>
<path fill-rule="evenodd" clip-rule="evenodd" d="M16 23.5557C16.5523 23.5557 17 24.0034 17 24.5557V28.2223C17 28.7746 16.5523 29.2223 16 29.2223C15.4477 29.2223 15 28.7746 15 28.2223V24.5557C15 24.0034 15.4477 23.5557 16 23.5557Z" fill="white"/>
<circle cx="30" cy="2" r="2" fill="#72E655"/>
</svg>
