<svg width="32" height="32" viewBox="0 0 32 32" fill="none" xmlns="http://www.w3.org/2000/svg">
<path fill-rule="evenodd" clip-rule="evenodd" d="M10.1111 8.66672C10.1111 5.41332 12.7466 2.77783 16 2.77783C19.2534 2.77783 21.8889 5.41332 21.8889 8.66672V9.03339C21.8889 9.58567 21.4412 10.0334 20.8889 10.0334C20.3366 10.0334 19.8889 9.58567 19.8889 9.03339V8.66672C19.8889 6.51789 18.1489 4.77783 16 4.77783C13.8512 4.77783 12.1111 6.51789 12.1111 8.66672V14.7778C12.1111 15.3301 11.6634 15.7778 11.1111 15.7778C10.5589 15.7778 10.1111 15.3301 10.1111 14.7778V8.66672Z" fill="white"/>
<path fill-rule="evenodd" clip-rule="evenodd" d="M20.8889 13.7778C21.4412 13.7778 21.8889 14.2255 21.8889 14.7778V15.3889C21.8889 18.6423 19.2534 21.2778 16 21.2778C14.2804 21.2778 12.717 20.5418 11.6394 19.3462C11.2697 18.9359 11.3025 18.3036 11.7128 17.9339C12.1231 17.5641 12.7554 17.597 13.1251 18.0072C13.832 18.7916 14.8597 19.2778 16 19.2778C18.1489 19.2778 19.8889 17.5378 19.8889 15.3889V14.7778C19.8889 14.2255 20.3367 13.7778 20.8889 13.7778Z" fill="white"/>
<path fill-rule="evenodd" clip-rule="evenodd" d="M25.35 12.1277C25.9023 12.1277 26.35 12.5754 26.35 13.1277V15.2055C26.35 20.9155 21.7101 25.5555 16 25.5555C13.2677 25.5555 10.7911 24.4991 8.94016 22.7833C8.53514 22.4078 8.51117 21.7751 8.88663 21.3701C9.2621 20.965 9.89481 20.9411 10.2998 21.3165C11.7978 22.7052 13.7945 23.5555 16 23.5555C20.6055 23.5555 24.35 19.811 24.35 15.2055V13.1277C24.35 12.5754 24.7977 12.1277 25.35 12.1277Z" fill="white"/>
<path fill-rule="evenodd" clip-rule="evenodd" d="M6.65002 12.1277C7.20231 12.1277 7.65002 12.5754 7.65002 13.1277V15.2055C7.65002 16.3665 7.87956 17.456 8.30405 18.4574C8.5196 18.9659 8.28213 19.5528 7.77365 19.7684C7.26517 19.9839 6.67822 19.7465 6.46267 19.238C5.93382 17.9904 5.65002 16.6355 5.65002 15.2055V13.1277C5.65002 12.5754 6.09774 12.1277 6.65002 12.1277Z" fill="white"/>
<path fill-rule="evenodd" clip-rule="evenodd" d="M25.4996 5.16809C25.8903 5.55849 25.8905 6.19166 25.5001 6.5823L7.59435 24.5C7.20395 24.8907 6.57078 24.8909 6.18014 24.5005C5.78949 24.1101 5.78929 23.4769 6.1797 23.0863L24.0854 5.16853C24.4758 4.77788 25.109 4.77769 25.4996 5.16809Z" fill="white"/>
<path fill-rule="evenodd" clip-rule="evenodd" d="M16 23.5557C16.5523 23.5557 17 24.0034 17 24.5557V28.2223C17 28.7746 16.5523 29.2223 16 29.2223C15.4477 29.2223 15 28.7746 15 28.2223V24.5557C15 24.0034 15.4477 23.5557 16 23.5557Z" fill="white"/>
<circle cx="30" cy="2" r="2" fill="#FF0000"/>
</svg>
