<svg width="12" height="12" viewBox="0 0 12 12" fill="none" xmlns="http://www.w3.org/2000/svg">
  <g clip-path="url(#clip0_2318_69443)">
    <path d="M1.98063 7.51666L1.42647 9.90833C1.40735 9.99575 1.408 10.0863 1.42838 10.1735C1.44876 10.2606 1.48835 10.3421 1.54426 10.412C1.60017 10.4819 1.67098 10.5384 1.75152 10.5774C1.83207 10.6164 1.92031 10.637 2.0098 10.6375C2.05148 10.642 2.09353 10.642 2.13522 10.6375L4.54147 10.0833L9.16147 5.48082L6.58313 2.90833L1.98063 7.51666Z" fill="white"/>
    <path d="M10.6141 3.17662L8.89329 1.45578C8.78016 1.34322 8.62706 1.28003 8.46746 1.28003C8.30787 1.28003 8.15476 1.34322 8.04163 1.45578L7.08496 2.41245L9.66038 4.98787L10.617 4.0312C10.673 3.97493 10.7174 3.90818 10.7475 3.83475C10.7777 3.76133 10.7931 3.68268 10.7928 3.6033C10.7925 3.52393 10.7766 3.44539 10.7459 3.37217C10.7153 3.29895 10.6705 3.2325 10.6141 3.17662Z" fill="white"/>
  </g>
  <defs>
    <clipPath id="clip0_2318_69443">
      <rect width="10.5" height="10.5" fill="white" transform="translate(0.75 0.75)"/>
    </clipPath>
  </defs>
</svg>
