<svg  viewBox="0 0 33 32" fill="none" xmlns="http://www.w3.org/2000/svg">
  <path d="M12.9999 4.33319C9.94325 4.33319 7.45825 6.81819 7.45825 9.87486C7.45825 12.8732 9.80325 15.2999 12.8599 15.4049C12.9533 15.3932 13.0466 15.3932 13.1166 15.4049C13.1399 15.4049 13.1516 15.4049 13.1749 15.4049C13.1866 15.4049 13.1866 15.4049 13.1983 15.4049C16.1849 15.2999 18.5299 12.8732 18.5416 9.87486C18.5416 6.81819 16.0566 4.33319 12.9999 4.33319Z" fill="#72E655"/>
  <path d="M18.9266 18.5085C15.6716 16.3385 10.3633 16.3385 7.08495 18.5085C5.60329 19.5001 4.78662 20.8418 4.78662 22.2768C4.78662 23.7118 5.60329 25.0418 7.07329 26.0218C8.70662 27.1185 10.8533 27.6668 13 27.6668C15.1466 27.6668 17.2933 27.1185 18.9266 26.0218C20.3966 25.0301 21.2133 23.7001 21.2133 22.2535C21.2016 20.8185 20.3966 19.4885 18.9266 18.5085Z" fill="#72E655"/>
  <path opacity="0.4" d="M25.8217 10.5633C26.0083 12.8266 24.3983 14.81 22.17 15.0783C22.1583 15.0783 22.1583 15.0783 22.1467 15.0783H22.1117C22.0417 15.0783 21.9717 15.0783 21.9133 15.1016C20.7817 15.16 19.7433 14.7983 18.9617 14.1333C20.1633 13.06 20.8517 11.45 20.7117 9.69997C20.63 8.75497 20.3033 7.89164 19.8133 7.15664C20.2567 6.93497 20.77 6.79497 21.295 6.74831C23.5817 6.54997 25.6233 8.25331 25.8217 10.5633Z" fill="#72E655"/>
  <path opacity="0.4" d="M28.1551 21.3551C28.0618 22.4868 27.3384 23.4668 26.1251 24.1318C24.9584 24.7735 23.4884 25.0768 22.0301 25.0418C22.8701 24.2835 23.3601 23.3385 23.4534 22.3351C23.5701 20.8885 22.8818 19.5001 21.5051 18.3918C20.7234 17.7735 19.8134 17.2835 18.8218 16.9218C21.4001 16.1751 24.6434 16.6768 26.6384 18.2868C27.7118 19.1501 28.2601 20.2351 28.1551 21.3551Z" fill="#72E655"/>
</svg>
