<svg  viewBox="0 0 33 32" fill="none" xmlns="http://www.w3.org/2000/svg">
  <path d="M22.6616 19.5027C22.6616 24.9323 18.2605 29.3335 12.8308 29.3335C7.40118 29.3335 3 24.9323 3 19.5027C3 14.0731 7.40118 9.67188 12.8308 9.67188C13.0879 9.67188 13.3602 9.68701 13.6173 9.70213C18.4117 10.0802 22.2533 13.9218 22.6314 18.7162C22.6465 18.9733 22.6616 19.2456 22.6616 19.5027Z" fill="#72E655"/>
  <path opacity="0.4" fill-rule="evenodd" clip-rule="evenodd" d="M24.8799 22.026C27.531 20.2652 29.2785 17.2522 29.2785 13.8309C29.2785 8.40127 24.8773 4.00009 19.4476 4.00009C16.8414 4.00009 14.4722 5.01409 12.7129 6.66912C12.9791 6.67494 13.2522 6.6903 13.5133 6.70566C19.6907 7.19284 24.6405 12.1426 25.1277 18.32C25.1471 18.6513 25.1666 19.0021 25.1666 19.3333C25.1666 20.2573 25.0677 21.1582 24.8799 22.026Z" fill="#72E655"/>
  <path d="M11.9501 18.4501L13.2811 16L14.612 18.4501L17.0622 19.7811L14.612 21.112L13.2811 23.5622L11.9501 21.112L9.5 19.7811L11.9501 18.4501Z" fill="#19191E"/>
</svg>
