<svg width="24" height="24" viewBox="0 0 24 24" fill="none" xmlns="http://www.w3.org/2000/svg">
<path fill-rule="evenodd" clip-rule="evenodd" d="M9.77706 11.9881L7.52982 11.239L7.52981 11.239L7.52981 11.239C5.1766 10.4546 4 10.0624 4 9.34165C4 8.62089 5.17661 8.22869 7.52982 7.44428L16.043 4.60656C17.6988 4.05463 18.5267 3.77866 18.9637 4.21568C19.4007 4.6527 19.1247 5.48059 18.5728 7.13638L15.7351 15.6496L15.7351 15.6496L15.7351 15.6496C14.9507 18.0028 14.5585 19.1794 13.8377 19.1794C13.117 19.1794 12.7248 18.0028 11.9404 15.6495L11.1913 13.4023L15.5448 9.04876C15.9354 8.65823 15.9354 8.02507 15.5448 7.63454C15.1543 7.24402 14.5211 7.24402 14.1306 7.63454L9.77706 11.9881Z" fill="white"/>
</svg>
