<svg viewBox="0 0 34 34" fill="none" xmlns="http://www.w3.org/2000/svg">
  <path fill-rule="evenodd" clip-rule="evenodd" d="M14.3412 17.116L8.71897 15.2419C6.36575 14.4575 5.18915 14.0653 5.18915 13.3446C5.18915 12.6238 6.36576 12.2316 8.71897 11.4472L23.9821 6.35949C25.6379 5.80756 26.4658 5.53159 26.9028 5.96861C27.3399 6.40563 27.0639 7.23352 26.512 8.88931L21.4242 24.1525C20.6398 26.5057 20.2476 27.6823 19.5269 27.6823C18.8061 27.6823 18.4139 26.5057 17.6295 24.1525L15.7554 18.5302L21.609 12.6767C21.9995 12.2862 21.9995 11.653 21.609 11.2625C21.2185 10.8719 20.5853 10.8719 20.1948 11.2625L14.3412 17.116Z" fill="white"/>
</svg>
