<svg width="30" height="30" viewBox="0 0 30 30" fill="none" xmlns="http://www.w3.org/2000/svg">
  <path fill-rule="evenodd" clip-rule="evenodd" d="M13.8333 19.2282C12.6383 19.0891 10.9442 18.9744 8.99788 19.898C7.23833 20.7328 5.25931 22.4365 3.24514 25.7547L3.24222 25.7595L3.05462 26.0533L3.04639 26.0637C2.78612 26.3898 2.38339 26.5557 1.97799 26.4832L1.95873 26.4798L1.67346 26.381L1.65648 26.372C1.28272 26.1743 1.04091 25.779 1.00474 25.3426L1.00336 25.326L1.00018 25.0965C1.02443 19.015 2.74171 15.2638 4.98737 12.897C7.85578 9.87326 11.6141 9.17288 13.8333 8.79995V4.77271C13.8333 4.32053 14.0544 3.89081 14.4305 3.66161C14.8115 3.42969 15.2784 3.44901 15.6412 3.70906L28.4746 12.9136C28.8083 13.1529 29 13.556 29 13.9773C29 14.3985 28.8083 14.8016 28.4746 15.0409L15.7254 24.1851L15.5698 24.2933C15.2526 24.4866 14.8694 24.5075 14.5353 24.3494L14.525 24.3446L14.3679 24.252L14.3588 24.2455C14.0708 24.039 13.8874 23.709 13.8436 23.3507L13.8422 23.3395L13.8332 23.0566L13.8333 19.2282ZM14.1338 16.7287L14.1388 16.7292C14.4934 16.7662 14.7767 16.7954 15 16.7954C15.6694 16.7954 16.1666 17.3917 16.1666 18.0682V20.8215L25.7091 13.9773L16.1666 7.13297V9.88635C16.1666 10.3691 15.9168 10.8104 15.5208 11.0255L15.4943 11.0399L14.9301 11.1887L14.919 11.1905C14.7528 11.2187 14.572 11.247 14.3803 11.2771C12.4218 11.584 9.21289 12.0921 6.74795 14.5844L6.48475 14.8614C5.21967 16.2484 4.18715 18.2208 3.67797 21.043C5.14516 19.353 6.58635 18.2907 7.93241 17.6284L7.93596 17.6267L8.2313 17.4871C10.6961 16.3702 12.8075 16.5904 14.1338 16.7287Z" fill="white"/>
</svg>
