<svg width="100%" height="100%" viewBox="0 0 21 20" fill="none" xmlns="http://www.w3.org/2000/svg">
  <path d="M20.3259 7.15862L14.2684 6.5821C14.0466 6.56101 13.854 6.41344 13.7675 6.19834L11.4305 0.386404C11.2233 -0.128801 10.5268 -0.128801 10.3196 0.386404L7.98258 6.19821C7.89608 6.4133 7.70349 6.56088 7.48172 6.58196L1.42414 7.15848C0.891477 7.20919 0.681013 7.90793 1.08945 8.27005L3.73859 10.6187C4.15912 10.9916 4.70507 11.1713 5.25351 11.1173L10.3784 10.6131C10.8895 10.5628 11.1117 11.2731 10.6714 11.5498L6.21144 14.3525C5.73649 14.6509 5.39706 15.1382 5.27034 15.7031L4.48107 19.2215C4.35815 19.7696 4.92907 20.1998 5.38563 19.9029L10.5573 16.5388C10.752 16.4122 10.9984 16.4122 11.1929 16.5388L16.3646 19.9029C16.8211 20.1998 17.3921 19.7696 17.2692 19.2215L15.8672 12.9718C15.8152 12.7404 15.8916 12.4982 16.0646 12.3448L20.6608 8.27019C21.0692 7.90807 20.8587 7.20933 20.3261 7.15862H20.3259Z" fill="url(#paint0_linear_1567_63322)"/>
  <defs>
    <linearGradient id="paint0_linear_1567_63322" x1="10.8751" y1="0" x2="10.8751" y2="19.9998" gradientUnits="userSpaceOnUse">
      <stop stop-color="#F5D64A"/>
      <stop offset="1" stop-color="#F78826"/>
    </linearGradient>
  </defs>
</svg>
