<svg viewBox="0 0 33 32" fill="none" xmlns="http://www.w3.org/2000/svg">
  <g clip-path="url(#clip0_1529_49129)">
    <path d="M28.3411 12.5903L21.072 11.8985C20.8059 11.8732 20.5748 11.6961 20.471 11.438L17.6665 4.46368C17.4179 3.84544 16.5822 3.84544 16.3335 4.46368L13.5291 11.4378C13.4253 11.696 13.1942 11.8731 12.928 11.8984L5.65895 12.5902C5.01975 12.651 4.76719 13.4895 5.25732 13.9241L8.43629 16.7425C8.94093 17.1899 9.59606 17.4055 10.2542 17.3407L16.4041 16.7357C17.0174 16.6753 17.284 17.5277 16.7557 17.8597L11.4037 21.223C10.8338 21.5811 10.4265 22.1658 10.2744 22.8437L9.32725 27.0658C9.17976 27.7236 9.86486 28.2398 10.4127 27.8835L16.6187 23.8466C16.8524 23.6946 17.148 23.6946 17.3815 23.8466L23.5875 27.8835C24.1354 28.2398 24.8205 27.7236 24.673 27.0658L22.9906 19.5662C22.9283 19.2885 23.0199 18.9979 23.2275 18.8138L28.7429 13.9242C29.233 13.4897 28.9805 12.6512 28.3413 12.5903H28.3411Z" fill="#72E655"/>
  </g>
  <defs>
    <clipPath id="clip0_1529_49129">
      <rect width="24" height="24" fill="white" transform="translate(5 4)"/>
    </clipPath>
  </defs>
</svg>
