<svg width="33" height="33" viewBox="0 0 33 33" fill="none" xmlns="http://www.w3.org/2000/svg">
  <path d="M16.6667 13.6667C21.968 13.6667 27.3333 11.8347 27.3333 8.33333C27.3333 4.832 21.968 3 16.6667 3C11.3653 3 6 4.832 6 8.33333C6 11.8347 11.3653 13.6667 16.6667 13.6667Z" fill="#72E655"/>
  <path opacity="0.4" d="M6 13.6667C6 17.168 11.3653 19 16.6667 19C21.968 19 27.3333 17.168 27.3333 13.6667V11C27.3333 14.5013 21.968 16.3333 16.6667 16.3333C11.3653 16.3333 6 14.5013 6 11V13.6667Z" fill="#72E655"/>
  <path opacity="0.4" d="M6 18.9999C6 22.5013 11.3653 24.3333 16.6667 24.3333C21.968 24.3333 27.3333 22.5013 27.3333 18.9999V16.3333C27.3333 19.8346 21.968 21.6666 16.6667 21.6666C11.3653 21.6666 6 19.8346 6 16.3333V18.9999Z" fill="#72E655"/>
  <path opacity="0.4" d="M6 24.3332C6 27.8345 11.3653 29.6665 16.6667 29.6665C21.968 29.6665 27.3333 27.8345 27.3333 24.3332V21.6665C27.3333 25.1678 21.968 26.9998 16.6667 26.9998C11.3653 26.9998 6 25.1678 6 21.6665V24.3332Z" fill="#72E655"/>
</svg>
