<svg
  width="40"
  height="40"
  viewBox="0 0 40 40"
  fill="none"
  xmlns="http://www.w3.org/2000/svg"
>
  <g clipPath="url(#clip0_1763_66089)">
    <path
      opacity="0.08"
      fillRule="evenodd"
      clipRule="evenodd"
      d="M6.8825 5.665C6.4875 5.845 5.905 6.415 5.7025 6.82C5.59832 7.02218 5.54148 7.2454 5.53628 7.47279C5.53108 7.70018 5.57766 7.92577 5.6725 8.1325C5.8575 8.545 11.6675 14.375 12.125 14.6075C12.775 14.9408 13.4358 14.7792 14.1075 14.1225C14.7675 13.4775 14.9425 12.7775 14.6075 12.125C14.375 11.6675 8.545 5.8575 8.1325 5.6725C7.93531 5.58742 7.72301 5.54291 7.50826 5.54162C7.29351 5.54034 7.08069 5.58229 6.8825 5.665Z"
      fill="#72E655"
    />
    <path
      opacity="0.14"
      fillRule="evenodd"
      clipRule="evenodd"
      d="M1.74753 18.23C1.01086 18.4617 0.643359 19.0508 0.645025 19.9975C0.647525 20.965 1.00753 21.545 1.74503 21.765C2.04003 21.8525 2.69752 21.8675 6.27002 21.8675C9.99253 21.8675 10.49 21.855 10.795 21.755C11.0193 21.6817 11.2231 21.5566 11.3899 21.3898C11.5567 21.223 11.6818 21.0192 11.755 20.795C11.97 20.1325 11.8625 19.1925 11.52 18.7275C11.3835 18.5774 11.2219 18.4522 11.0425 18.3575L10.7 18.1675L6.36753 18.1525C2.88003 18.1425 1.97753 18.1575 1.74753 18.23Z"
      fill="#72E655"
    />
    <path
      opacity="0.25"
      fillRule="evenodd"
      clipRule="evenodd"
      d="M12.1325 25.705C11.825 25.8475 11.3 26.34 8.79502 28.8525C6.49252 31.16 5.79002 31.905 5.67752 32.15C5.58454 32.3533 5.53662 32.5742 5.53705 32.7978C5.53748 33.0213 5.58626 33.2421 5.68002 33.445C5.85502 33.82 6.43002 34.41 6.81752 34.6125C7.21002 34.8175 7.79252 34.815 8.20002 34.6075C8.61752 34.3925 14.3925 28.6175 14.6075 28.2C14.7096 27.985 14.7632 27.7501 14.7645 27.5121C14.7658 27.2741 14.7147 27.0386 14.615 26.8225C14.3383 26.3598 13.9475 25.9759 13.48 25.7075C13.2731 25.596 13.0417 25.5373 12.8066 25.5369C12.5715 25.5365 12.3399 25.5942 12.1325 25.705Z"
      fill="#72E655"
    />
    <path
      opacity="0.4"
      fillRule="evenodd"
      clipRule="evenodd"
      d="M19.3625 28.1925C19.0249 28.2879 18.7197 28.4738 18.48 28.73C18.135 29.195 18.1325 29.2275 18.1325 33.7225C18.1325 37.3025 18.1475 37.96 18.235 38.255C18.4517 38.9883 19.04 39.3542 20 39.3525C20.96 39.3558 21.5483 38.99 21.765 38.255C21.92 37.725 21.9175 29.6875 21.76 29.225C21.7113 29.0387 21.6225 28.8652 21.4999 28.7167C21.3773 28.5681 21.2237 28.4481 21.05 28.365C20.775 28.215 20.615 28.1775 20.1425 28.16C19.8821 28.1437 19.6207 28.1546 19.3625 28.1925Z"
      fill="#72E655"
    />
    <path
      opacity="0.55"
      fillRule="evenodd"
      clipRule="evenodd"
      d="M26.8825 25.665C26.4875 25.845 25.905 26.415 25.7025 26.82C25.5983 27.0222 25.5415 27.2454 25.5363 27.4728C25.5311 27.7002 25.5777 27.9258 25.6725 28.1325C25.8575 28.545 31.6675 34.375 32.125 34.6075C32.775 34.9408 33.4358 34.7792 34.1075 34.1225C34.7675 33.4775 34.9425 32.7775 34.6075 32.125C34.375 31.6675 28.545 25.8575 28.1325 25.6725C27.9353 25.5874 27.723 25.5429 27.5083 25.5416C27.2935 25.5403 27.0807 25.5823 26.8825 25.665Z"
      fill="#72E655"
    />
    <path
      opacity="0.7"
      fillRule="evenodd"
      clipRule="evenodd"
      d="M29.3625 18.195C29.0246 18.2885 28.7192 18.4737 28.48 18.73C28.1375 19.1925 28.03 20.1325 28.245 20.795C28.39 21.245 28.755 21.61 29.205 21.755C29.51 21.855 30.0075 21.8675 33.73 21.8675C37.3025 21.8675 37.96 21.8525 38.255 21.765C38.9925 21.545 39.3525 20.965 39.355 19.9975C39.355 19.035 38.9875 18.4575 38.225 18.2275C37.9675 18.15 37.16 18.135 33.74 18.14C31.445 18.145 29.475 18.17 29.3625 18.195Z"
      fill="#72E655"
    />
    <path
      opacity="0.85"
      fillRule="evenodd"
      clipRule="evenodd"
      d="M32.1325 5.705C31.825 5.8475 31.3 6.34 28.795 8.8525C26.4925 11.16 25.79 11.905 25.6775 12.15C25.5845 12.3533 25.5366 12.5742 25.5371 12.7978C25.5375 13.0213 25.5863 13.2421 25.68 13.445C25.855 13.82 26.43 14.41 26.8175 14.6125C27.21 14.8175 27.7925 14.815 28.2 14.6075C28.6175 14.3925 34.3925 8.6175 34.6075 8.2C34.7096 7.98496 34.7632 7.75012 34.7645 7.51209C34.7658 7.27405 34.7147 7.03864 34.615 6.8225C34.3383 6.35984 33.9475 5.97592 33.48 5.7075C33.2731 5.59595 33.0417 5.53735 32.8066 5.53691C32.5715 5.53648 32.3399 5.59422 32.1325 5.705Z"
      fill="#72E655"
    />
    <path
      fillRule="evenodd"
      clipRule="evenodd"
      d="M19.265 0.725C18.71 0.905 18.39 1.225 18.235 1.7475C18.1475 2.04 18.1325 2.72 18.1325 6.27C18.1325 10.9725 18.1275 10.9125 18.6075 11.3925C19.25 12.0325 20.75 12.0325 21.3925 11.3925C21.8725 10.9125 21.8675 10.9725 21.8675 6.27C21.8675 1.72 21.86 1.64 21.49 1.2C21.18 0.8325 20.8475 0.71 20.1 0.69C19.8212 0.674206 19.5415 0.685929 19.265 0.725Z"
      fill="#72E655"
    />
  </g>
  <defs>
    <clipPath id="clip0_1763_66089">
      <rect width="40" height="40" fill="white" />
    </clipPath>
  </defs>
</svg>
