<svg width="12" height="13" viewBox="0 0 12 13" fill="none" xmlns="http://www.w3.org/2000/svg">
  <path d="M6 5.25C5.60218 5.25 5.22064 5.40804 4.93934 5.68934C4.65804 5.97064 4.5 6.35218 4.5 6.75C4.5 7.14782 4.65804 7.52936 4.93934 7.81066C5.22064 8.09196 5.60218 8.25 6 8.25C6.39782 8.25 6.77936 8.09196 7.06066 7.81066C7.34196 7.52936 7.5 7.14782 7.5 6.75C7.5 6.35218 7.34196 5.97064 7.06066 5.68934C6.77936 5.40804 6.39782 5.25 6 5.25ZM6 9.25C5.33696 9.25 4.70107 8.98661 4.23223 8.51777C3.76339 8.04893 3.5 7.41304 3.5 6.75C3.5 6.08696 3.76339 5.45107 4.23223 4.98223C4.70107 4.51339 5.33696 4.25 6 4.25C6.66304 4.25 7.29893 4.51339 7.76777 4.98223C8.23661 5.45107 8.5 6.08696 8.5 6.75C8.5 7.41304 8.23661 8.04893 7.76777 8.51777C7.29893 8.98661 6.66304 9.25 6 9.25ZM6 3C3.5 3 1.365 4.555 0.5 6.75C1.365 8.945 3.5 10.5 6 10.5C8.5 10.5 10.635 8.945 11.5 6.75C10.635 4.555 8.5 3 6 3Z" fill="white"/>
</svg>
